<svg width="20" height="20" viewBox="0 0 20 20" fill="none" xmlns="http://www.w3.org/2000/svg">
<g clip-path="url(#clip0_868_58)">
<path d="M16.6667 7.24186V3.33353H12.7583L10 0.575195L7.24168 3.33353H3.33335V7.24186L0.575012 10.0002L3.33335 12.7585V16.6669H7.24168L10 19.4252L12.7583 16.6669H16.6667V12.7585L19.425 10.0002L16.6667 7.24186ZM15 12.0669V15.0002H12.0667L10 17.0669L7.93335 15.0002H5.00001V12.0669L2.93335 10.0002L5.00001 7.93353V5.0002H7.93335L10 2.93353L12.0667 5.0002H15V7.93353L17.0667 10.0002L15 12.0669ZM10 5.0002C7.24168 5.0002 5.00001 7.24186 5.00001 10.0002C5.00001 12.7585 7.24168 15.0002 10 15.0002C12.7583 15.0002 15 12.7585 15 10.0002C15 7.24186 12.7583 5.0002 10 5.0002ZM10 13.3335C8.15835 13.3335 6.66668 11.8419 6.66668 10.0002C6.66668 8.15853 8.15835 6.66686 10 6.66686C11.8417 6.66686 13.3333 8.15853 13.3333 10.0002C13.3333 11.8419 11.8417 13.3335 10 13.3335Z" fill="#7A7A7A"/>
</g>
<defs>
<clipPath id="clip0_868_58">
<rect width="20" height="20" fill="white"/>
</clipPath>
</defs>
</svg>
