<svg width="20" height="20" viewBox="0 0 20 20" fill="none" xmlns="http://www.w3.org/2000/svg">
<g clip-path="url(#clip0_868_44)">
<path d="M9.16669 19.6585V16.6585C4.99169 16.4418 1.66669 12.9752 1.66669 8.75016C1.66669 4.3835 5.21669 0.833496 9.58335 0.833496C13.95 0.833496 17.5 4.3835 17.5 8.75016C17.5 12.8752 14.6334 17.0252 10.3584 19.0835L9.16669 19.6585ZM9.58335 2.50016C6.13335 2.50016 3.33335 5.30016 3.33335 8.75016C3.33335 12.2002 6.13335 15.0002 9.58335 15.0002H10.8334V16.9168C13.8667 15.0002 15.8334 11.8502 15.8334 8.75016C15.8334 5.30016 13.0334 2.50016 9.58335 2.50016ZM8.75002 12.0835H10.4167V13.7502H8.75002V12.0835ZM10.4167 10.8335H8.75002C8.75002 8.12516 11.25 8.3335 11.25 6.66683C11.25 5.75016 10.5 5.00016 9.58335 5.00016C8.66669 5.00016 7.91669 5.75016 7.91669 6.66683H6.25002C6.25002 4.82516 7.74169 3.3335 9.58335 3.3335C11.425 3.3335 12.9167 4.82516 12.9167 6.66683C12.9167 8.75016 10.4167 8.9585 10.4167 10.8335Z" fill="#7A7A7A"/>
</g>
<defs>
<clipPath id="clip0_868_44">
<rect width="20" height="20" fill="white"/>
</clipPath>
</defs>
</svg>
