<svg width="48" height="48" viewBox="0 0 48 48" fill="none" xmlns="http://www.w3.org/2000/svg">
<g clip-path="url(#clip0_888_67)">
<path d="M36 6H29.64C28.8 3.68 26.6 2 24 2C21.4 2 19.2 3.68 18.36 6H12C9.8 6 8 7.8 8 10V40C8 42.2 9.8 44 12 44H24.22C23.04 42.86 22.08 41.5 21.38 40H12V10H16V12C16 14.2 17.8 16 20 16H28C30.2 16 32 14.2 32 12V10H36V20.16C37.42 20.36 38.76 20.78 40 21.36V10C40 7.8 38.2 6 36 6ZM24 10C22.9 10 22 9.1 22 8C22 6.9 22.9 6 24 6C25.1 6 26 6.9 26 8C26 9.1 25.1 10 24 10ZM34 24C28.48 24 24 28.48 24 34C24 39.52 28.48 44 34 44C39.52 44 44 39.52 44 34C44 28.48 39.52 24 34 24ZM36.58 38L33.28 34.7C33.1 34.52 32.98 34.26 32.98 34V29.02C32.98 28.46 33.42 28.02 33.98 28.02C34.54 28.02 34.98 28.46 34.98 29.02V33.6L37.98 36.6C38.38 37 38.38 37.62 37.98 38.02C37.6 38.4 36.98 38.4 36.58 38Z" fill="#542800"/>
</g>
<defs>
<clipPath id="clip0_888_67">
<rect width="48" height="48" fill="white"/>
</clipPath>
</defs>
</svg>
