<svg width="20" height="20" viewBox="0 0 20 20" fill="none" xmlns="http://www.w3.org/2000/svg">
<g clip-path="url(#clip0_868_61)">
<path d="M9.99999 1.6665C5.41666 1.6665 1.66666 5.4165 1.66666 9.99984C1.66666 14.5832 5.41666 18.3332 9.99999 18.3332C14.5833 18.3332 18.3333 14.5832 18.3333 9.99984C18.3333 5.4165 14.5833 1.6665 9.99999 1.6665ZM9.16666 16.6165C5.89166 16.1998 3.33332 13.3832 3.33332 9.99984C3.33332 6.6165 5.89166 3.79984 9.16666 3.3915V16.6165V16.6165ZM10.8333 16.6082V10.8332H16.6083C16.2333 13.8415 13.8417 16.2332 10.8333 16.6082ZM10.8333 9.1665V3.3915C13.8417 3.7665 16.2333 6.1665 16.6083 9.1665H10.8333Z" fill="#7A7A7A"/>
</g>
<defs>
<clipPath id="clip0_868_61">
<rect width="20" height="20" fill="white"/>
</clipPath>
</defs>
</svg>
